<svg width="153" height="161" viewBox="0 0 153 161" fill="none" xmlns="http://www.w3.org/2000/svg">
<rect x="43" width="67" height="19" fill="#483259"/>
<ellipse cx="75" cy="76.5" rx="72" ry="69.5" fill="url(#paint0_linear_0_1)"/>
<ellipse cx="75" cy="76.5" rx="72" ry="69.5" fill="url(#paint1_linear_0_1)"/>
<ellipse cx="75" cy="76.5" rx="72" ry="69.5" fill="url(#paint2_linear_0_1)"/>
<ellipse cx="75" cy="76.5" rx="72" ry="69.5" fill="url(#paint3_linear_0_1)"/>
<ellipse cx="75" cy="81.5" rx="72" ry="69.5" fill="url(#paint4_linear_0_1)"/>
<ellipse cx="75" cy="81.5" rx="72" ry="69.5" fill="url(#paint5_linear_0_1)"/>
<rect x="13.3152" y="98" width="67.35" height="17.3818" transform="rotate(50 13.3152 98)" fill="url(#paint6_linear_0_1)"/>
<rect x="96" y="149.446" width="67.349" height="17.3818" transform="rotate(-50 96 149.446)" fill="url(#paint7_linear_0_1)"/>
<rect x="137" y="109" width="57" height="16" transform="rotate(-90 137 109)" fill="url(#paint8_linear_0_1)"/>
<rect x="109.315" width="67.35" height="17.3818" transform="rotate(50 109.315 0)" fill="#512C6D"/>
<rect y="51.5923" width="67.349" height="17.3818" transform="rotate(-50 0 51.5923)" fill="url(#paint9_linear_0_1)"/>
<rect y="109" width="57" height="16" transform="rotate(-90 0 109)" fill="url(#paint10_linear_0_1)"/>
<rect x="43" y="142" width="66" height="19" fill="url(#paint11_linear_0_1)"/>
<rect x="64" y="47" width="25" height="7" fill="url(#paint12_linear_0_1)"/>
<ellipse cx="78" cy="78.5" rx="28" ry="26.5" fill="url(#paint13_linear_0_1)"/>
<rect width="25.9507" height="6.69899" transform="matrix(0.643304 0.765611 -0.766478 0.642271 53.1346 84.7391)" fill="#B970F1"/>
<rect width="25.9503" height="6.69899" transform="matrix(0.643304 -0.765611 0.766478 0.642271 85.0196 104.55)" fill="url(#paint14_linear_0_1)"/>
<rect x="101" y="89" width="22" height="6" transform="rotate(-90 101 89)" fill="#9C55D3"/>
<rect width="25.9507" height="6.69899" transform="matrix(0.643304 0.765611 -0.766478 0.642271 90.1542 47)" fill="#9B6BBF"/>
<rect width="25.9503" height="6.69899" transform="matrix(0.643304 -0.765611 0.766478 0.642271 48 66.8679)" fill="url(#paint15_linear_0_1)"/>
<rect x="48" y="89" width="22" height="6" transform="rotate(-90 48 89)" fill="url(#paint16_linear_0_1)"/>
<rect x="65" y="102" width="25" height="7" fill="url(#paint17_linear_0_1)"/>
<defs>
<linearGradient id="paint0_linear_0_1" x1="75" y1="7" x2="75" y2="146" gradientUnits="userSpaceOnUse">
<stop stop-color="#512C6D"/>
<stop offset="0.32" stop-color="#67388C"/>
<stop offset="0.725" stop-color="#76409F"/>
<stop offset="0.9998" stop-color="#9C55D3"/>
<stop offset="0.9999" stop-color="#9C55D3"/>
<stop offset="1" stop-color="#9C55D3"/>
</linearGradient>
<linearGradient id="paint1_linear_0_1" x1="75" y1="7" x2="75" y2="146" gradientUnits="userSpaceOnUse">
<stop stop-color="#512C6D"/>
<stop offset="0.32" stop-color="#67388C"/>
<stop offset="0.725" stop-color="#76409F"/>
<stop offset="0.9998" stop-color="#9C55D3"/>
<stop offset="0.9999" stop-color="#9C55D3"/>
<stop offset="1" stop-color="#9C55D3"/>
</linearGradient>
<linearGradient id="paint2_linear_0_1" x1="75" y1="7" x2="75" y2="146" gradientUnits="userSpaceOnUse">
<stop stop-color="#512C6D"/>
<stop offset="0.32" stop-color="#67388C"/>
<stop offset="0.725" stop-color="#76409F"/>
<stop offset="0.9998" stop-color="#9C55D3"/>
<stop offset="0.9999" stop-color="#9C55D3"/>
<stop offset="1" stop-color="#9C55D3"/>
</linearGradient>
<linearGradient id="paint3_linear_0_1" x1="75" y1="7" x2="75" y2="146" gradientUnits="userSpaceOnUse">
<stop stop-color="#512C6D"/>
<stop offset="0.32" stop-color="#67388C"/>
<stop offset="0.725" stop-color="#76409F"/>
<stop offset="0.9998" stop-color="#9C55D3"/>
<stop offset="0.9999" stop-color="#9C55D3"/>
<stop offset="1" stop-color="#9C55D3"/>
</linearGradient>
<linearGradient id="paint4_linear_0_1" x1="75" y1="12" x2="75" y2="151" gradientUnits="userSpaceOnUse">
<stop stop-color="#512C6D"/>
<stop offset="0.0001" stop-color="#9C55D3"/>
<stop offset="0.0002" stop-color="#76409F"/>
<stop offset="0.31" stop-color="#7A42A6"/>
<stop offset="0.57" stop-color="#9C55D3"/>
<stop offset="0.775" stop-color="#67388C"/>
<stop offset="0.9997" stop-color="#6B3A91"/>
<stop offset="0.9998" stop-color="#9C55D3"/>
</linearGradient>
<linearGradient id="paint5_linear_0_1" x1="75" y1="12" x2="75" y2="151" gradientUnits="userSpaceOnUse">
<stop stop-color="#512C6D"/>
<stop offset="0.32" stop-color="#67388C"/>
<stop offset="0.52" stop-color="#6C3B93"/>
<stop offset="0.725" stop-color="#76409F"/>
<stop offset="0.9998" stop-color="#9C55D3"/>
<stop offset="0.9999" stop-color="#9C55D3"/>
<stop offset="1" stop-color="#9C55D3"/>
</linearGradient>
<linearGradient id="paint6_linear_0_1" x1="13.3152" y1="106.691" x2="80.6652" y2="106.691" gradientUnits="userSpaceOnUse">
<stop stop-color="#6C3B93"/>
<stop offset="1" stop-color="#483259"/>
</linearGradient>
<linearGradient id="paint7_linear_0_1" x1="163.349" y1="158.136" x2="96" y2="158.136" gradientUnits="userSpaceOnUse">
<stop stop-color="#76409F"/>
<stop offset="1" stop-color="#67388C"/>
<stop offset="1" stop-color="#BF9FAF"/>
</linearGradient>
<linearGradient id="paint8_linear_0_1" x1="194" y1="117" x2="137" y2="117" gradientUnits="userSpaceOnUse">
<stop stop-color="#483259"/>
<stop offset="1" stop-color="#74508F"/>
</linearGradient>
<linearGradient id="paint9_linear_0_1" x1="67.349" y1="60.2832" x2="0" y2="60.2832" gradientUnits="userSpaceOnUse">
<stop stop-color="#E8C1D4"/>
<stop offset="1" stop-color="#826C77"/>
</linearGradient>
<linearGradient id="paint10_linear_0_1" x1="57" y1="117" x2="0" y2="117" gradientUnits="userSpaceOnUse">
<stop stop-color="#483259"/>
<stop offset="1" stop-color="#9B6BBF"/>
</linearGradient>
<linearGradient id="paint11_linear_0_1" x1="43" y1="151.5" x2="109" y2="151.5" gradientUnits="userSpaceOnUse">
<stop stop-color="#483259"/>
<stop offset="1" stop-color="#9B6BBF"/>
</linearGradient>
<linearGradient id="paint12_linear_0_1" x1="64" y1="50.5" x2="89" y2="50.5" gradientUnits="userSpaceOnUse">
<stop stop-color="#483259"/>
<stop offset="0.0001" stop-color="#9266B5"/>
<stop offset="0.505" stop-color="#74508F"/>
<stop offset="1" stop-color="#9B6BBF"/>
</linearGradient>
<linearGradient id="paint13_linear_0_1" x1="78" y1="52" x2="78" y2="105" gradientUnits="userSpaceOnUse">
<stop stop-color="#512C6D"/>
<stop offset="0.0001" stop-color="#7942A4"/>
<stop offset="0.0002" stop-color="#9C55D3"/>
</linearGradient>
<linearGradient id="paint14_linear_0_1" x1="25.9503" y1="3.34949" x2="0" y2="3.34949" gradientUnits="userSpaceOnUse">
<stop stop-color="#483259"/>
<stop offset="0.0001" stop-color="#9B6BBF"/>
</linearGradient>
<linearGradient id="paint15_linear_0_1" x1="25.9503" y1="3.34949" x2="0" y2="3.34949" gradientUnits="userSpaceOnUse">
<stop stop-color="#E8C1D4"/>
<stop offset="0.0001" stop-color="#AA8D9B"/>
<stop offset="0.0002" stop-color="#836D78"/>
<stop offset="1" stop-color="#826C77"/>
</linearGradient>
<linearGradient id="paint16_linear_0_1" x1="70" y1="92" x2="48" y2="92" gradientUnits="userSpaceOnUse">
<stop offset="0.9999" stop-color="#7942A4"/>
<stop offset="1" stop-color="#512C6D"/>
</linearGradient>
<linearGradient id="paint17_linear_0_1" x1="65" y1="105.5" x2="90" y2="105.5" gradientUnits="userSpaceOnUse">
<stop stop-color="#483259"/>
<stop offset="0.0001" stop-color="#9B6BBF"/>
<stop offset="0.61" stop-color="#593E6E"/>
</linearGradient>
</defs>
</svg>
